<?xml version="1.0" encoding="UTF-8" standalone="no"?>
<!-- Created with Inkscape (http://www.inkscape.org/) -->

<svg
   xmlns:dc="http://purl.org/dc/elements/1.1/"
   xmlns:cc="http://creativecommons.org/ns#"
   xmlns:rdf="http://www.w3.org/1999/02/22-rdf-syntax-ns#"
   xmlns:svg="http://www.w3.org/2000/svg"
   xmlns="http://www.w3.org/2000/svg"
   xmlns:sodipodi="http://sodipodi.sourceforge.net/DTD/sodipodi-0.dtd"
   xmlns:inkscape="http://www.inkscape.org/namespaces/inkscape"
   width="210mm"
   height="297mm"
   viewBox="0 0 744.09448819 1052.3622047"
   id="svg4136"
   version="1.1"
   inkscape:version="0.91 r13725"
   sodipodi:docname="base_deconstruction.svg"
   inkscape:export-filename="C:\Users\Real\Dropbox\madman_post_pics\proton_pack\base_deconstruction.png"
   inkscape:export-xdpi="116.88727"
   inkscape:export-ydpi="116.88727">
  <defs
     id="defs4138" />
  <sodipodi:namedview
     id="base"
     pagecolor="#ffffff"
     bordercolor="#666666"
     borderopacity="1.0"
     inkscape:pageopacity="0.0"
     inkscape:pageshadow="2"
     inkscape:zoom="0.46942069"
     inkscape:cx="457.93317"
     inkscape:cy="510.91054"
     inkscape:document-units="px"
     inkscape:current-layer="layer1"
     showgrid="false"
     inkscape:window-width="1280"
     inkscape:window-height="666"
     inkscape:window-x="-8"
     inkscape:window-y="-8"
     inkscape:window-maximized="1" />
  <metadata
     id="metadata4141">
    <rdf:RDF>
      <cc:Work
         rdf:about="">
        <dc:format>image/svg+xml</dc:format>
        <dc:type
           rdf:resource="http://purl.org/dc/dcmitype/StillImage" />
        <dc:title></dc:title>
      </cc:Work>
    </rdf:RDF>
  </metadata>
  <g
     inkscape:label="Layer 1"
     inkscape:groupmode="layer"
     id="layer1">
    <path
       style="color:#000000;display:inline;overflow:visible;visibility:visible;opacity:1;fill:#735472;fill-opacity:1;fill-rule:nonzero;stroke:#000000;stroke-width:2.4000001;stroke-linecap:round;stroke-linejoin:round;stroke-miterlimit:4;stroke-dasharray:none;stroke-dashoffset:0;stroke-opacity:1;marker:none;enable-background:accumulate"
       d="m 309.97778,307.15998 261.28638,0 -141.0397,465.27626 -264.65753,-46.66905 z"
       id="path4738"
       inkscape:connector-curvature="0"
       sodipodi:nodetypes="ccccc" />
    <path
       sodipodi:nodetypes="ccccc"
       inkscape:connector-curvature="0"
       id="path4740"
       d="m 563,290.3622 7,16 -140,465 -31,-38 z"
       style="fill:#735472;fill-opacity:1;fill-rule:evenodd;stroke:#000000;stroke-width:2.4000001;stroke-linecap:butt;stroke-linejoin:miter;stroke-miterlimit:4;stroke-dasharray:none;stroke-opacity:1" />
    <path
       sodipodi:nodetypes="ccccc"
       inkscape:connector-curvature="0"
       id="path4742"
       d="m 301.97265,290.15998 261.28638,0 -143.02944,465.27626 -264.45795,-46.66905 z"
       style="color:#000000;display:inline;overflow:visible;visibility:visible;opacity:1;fill:#735472;fill-opacity:1;fill-rule:nonzero;stroke:#000000;stroke-width:2.4000001;stroke-linecap:round;stroke-linejoin:round;stroke-miterlimit:4;stroke-dasharray:none;stroke-dashoffset:0;stroke-opacity:1;marker:none;enable-background:accumulate" />
    <path
       sodipodi:nodetypes="ccccc"
       inkscape:connector-curvature="0"
       id="path4744"
       d="m 287.97265,272.15998 c 0,0 172.77485,-2.0501 236.28638,-1 -39.69429,75.65049 -118.02944,466.27626 -118.02944,466.27626 L 141.77164,690.76719 Z"
       style="color:#000000;display:inline;overflow:visible;visibility:visible;opacity:1;fill:#735472;fill-opacity:1;fill-rule:nonzero;stroke:#000000;stroke-width:2.4000001;stroke-linecap:round;stroke-linejoin:round;stroke-miterlimit:4;stroke-dasharray:none;stroke-dashoffset:0;stroke-opacity:1;marker:none;enable-background:accumulate" />
    <path
       style="fill:#735472;fill-opacity:1;fill-rule:evenodd;stroke:#000000;stroke-width:2.4000001;stroke-linecap:butt;stroke-linejoin:miter;stroke-miterlimit:4;stroke-dasharray:none;stroke-opacity:1"
       d="m 518,255.3622 7,16 -21,26 -9,-21 z"
       id="path4746"
       inkscape:connector-curvature="0" />
    <path
       style="color:#000000;display:inline;overflow:visible;visibility:visible;opacity:1;fill:#735472;fill-opacity:1;fill-rule:nonzero;stroke:none;stroke-width:2.4000001;stroke-linecap:round;stroke-linejoin:round;stroke-miterlimit:4;stroke-dasharray:none;stroke-dashoffset:0;stroke-opacity:1;marker:none;enable-background:accumulate"
       id="path4756"
       d="m 501.60977,296.31418 c 0.0949,-0.17828 0.20354,-0.37498 0.33758,-0.59159 0.12608,-0.22405 0.26935,-0.43826 0.40993,-0.6538 0.15227,-0.24149 0.29952,-0.48594 0.44342,-0.73223 0.17246,-0.31434 0.34642,-0.62784 0.52082,-0.94117 0.21286,-0.36912 0.41499,-0.74369 0.61403,-1.11997 0.19914,-0.37659 0.39328,-0.75567 0.59235,-1.1323 0.18552,-0.36512 0.37186,-0.73005 0.54623,-1.1004 0.20513,-0.41908 0.39489,-0.84502 0.59245,-1.26749 0.20401,-0.45113 0.40878,-0.90195 0.61183,-1.3535 0.22569,-0.5073 0.47208,-1.00542 0.71249,-1.50616 0.25902,-0.52311 0.52391,-1.04351 0.79181,-1.56236 0.24488,-0.48969 0.48866,-0.97996 0.72909,-1.47175 0.26025,-0.53668 0.5391,-1.06447 0.80348,-1.59917 0.26436,-0.52603 0.52338,-1.05456 0.78885,-1.58006 0.27165,-0.52172 0.53621,-1.047 0.79624,-1.57429 0.26029,-0.51632 0.52364,-1.03113 0.78637,-1.54627 0.25016,-0.50263 0.49139,-1.00942 0.73714,-1.51411 0.23533,-0.47762 0.46382,-0.95832 0.69408,-1.43826 0.24328,-0.50515 0.4764,-1.01476 0.71215,-1.52325 0.21353,-0.45257 0.39191,-0.91933 0.58298,-1.38095 0.0804,-0.28412 0.24314,-0.54702 0.30595,-0.83565 0.0653,-0.24633 0.13957,-0.47885 -0.0864,0.11234 -0.41582,1.40036 -5.8946,-2.54173 6.83036,3.75714 0.052,0.0257 0.60535,-0.79086 0.30449,-0.35293 8.8e-4,9e-5 0.15001,-0.2444 0.1093,-0.18523 -0.36758,0.53435 0.11202,-0.2122 -0.20873,0.3314 -0.0886,0.12855 -0.15794,0.23981 -0.23648,0.36956 -0.13178,0.23808 -0.25534,0.48051 -0.38119,0.72163 -0.15222,0.29654 -0.2946,0.59776 -0.44238,0.89642 -0.16673,0.33493 -0.32843,0.67212 -0.48679,1.01088 -0.16309,0.36124 -0.3144,0.7273 -0.46884,1.09207 -0.16429,0.3987 -0.33004,0.79684 -0.48194,1.20021 -0.16625,0.41401 -1.4331,0.83351 -1.57165,1.25699 -0.1394,0.45187 -0.28193,0.90282 -0.41397,1.35681 -0.15492,0.51929 -0.31509,1.03707 -0.47004,1.55634 -0.15533,0.5321 -0.31531,1.06291 -0.47657,1.59334 -0.16649,0.54143 -0.3287,1.08404 -0.4899,1.62699 -0.1357,0.44477 -0.2659,0.89106 -0.40281,1.33548 -1.59604,5.10552 -7.89909,2.90894 -6.30305,-2.19658 l 0,0 c 0.13638,-0.42968 0.26837,-0.86047 0.40079,-1.29135 0.16878,-0.52773 0.31585,-1.06202 0.47761,-1.59183 0.1547,-0.51999 0.30611,-1.0409 0.45524,-1.56242 0.14735,-0.5029 0.2966,-1.00527 0.44115,-1.50895 0.15222,-0.5337 0.31111,-1.06561 0.4735,-1.59645 0.16846,-0.52328 0.34867,-1.0427 0.54288,-1.5575 0.17756,-0.4832 0.36424,-0.96316 0.55275,-1.44241 0.17607,-0.44778 0.35305,-0.89536 0.54319,-1.33771 0.1689,-0.38643 0.33849,-0.77254 0.51237,-1.15688 0.1506,-0.33847 0.31134,-0.67242 0.46255,-1.01063 0.12866,-0.29096 0.25716,-0.58207 0.39112,-0.87075 0.12614,-0.25974 0.2532,-0.51894 0.39035,-0.77325 -0.10698,0.17787 0.13024,-0.26079 0.24852,-0.46009 0.0334,-0.0562 0.0697,-0.11074 0.10446,-0.16611 -0.10366,0.14892 0.44964,-0.65557 0.50238,-0.63135 9.84601,4.5214 7.51416,1.66144 6.89631,3.75174 -0.11553,0.31353 -0.21322,0.58623 -0.40689,0.86035 -0.16291,0.29799 -0.34618,0.58551 -0.48883,0.89402 -0.24199,0.42764 -0.45972,0.869 -0.66813,1.31284 -0.2441,0.51515 -0.48503,1.03164 -0.72424,1.54898 -0.24519,0.52544 -0.49324,1.04971 -0.75471,1.56771 -0.26238,0.51288 -1.6273,1.03239 -1.88447,1.54776 -0.25311,0.50752 -0.51001,1.01326 -0.77582,1.51461 -0.26529,0.5267 -0.54061,1.04851 -0.80237,1.57692 -0.25665,0.51977 -0.51051,1.04098 -0.78117,1.55405 -0.2571,0.5183 -0.51888,1.0344 -0.7678,1.55652 -0.25753,0.53191 -0.51311,1.06475 -0.77747,1.59349 -0.23059,0.46224 -0.46225,0.9241 -0.68219,1.39126 -0.2085,0.44359 -0.41541,0.88788 -0.62338,1.3317 -0.20903,0.47823 -0.41452,0.95793 -0.62567,1.43528 -0.19825,0.44912 0.72317,0.89971 0.51589,1.34499 -0.21308,0.45694 -0.44166,0.90652 -0.66375,1.35932 -0.20465,0.40983 -0.41908,0.81475 -0.62972,1.22166 -0.20218,0.37792 -0.39116,0.76254 -0.59072,1.1418 -0.17519,0.34127 -0.33941,0.68765 -0.51403,1.0292 -0.15071,0.28808 -0.2999,0.57691 -0.44987,0.86535 -0.0131,0.0243 -0.35935,0.67683 -0.26328,0.50632 -0.0366,0.0743 -0.14539,0.2973 -0.10296,0.22599 0.0258,-0.0433 0.036,-0.17317 0.0686,-0.13449 0.0177,0.021 -0.1146,0.23031 -0.0356,0.10252 -2.32538,5.09173 -9.72466,1.89138 -7.3993,-3.20034 z"
       inkscape:connector-curvature="0"
       sodipodi:nodetypes="ccccccccccccccccccccccccccccccccccccccccccccccccccccccccccccccccccccccccccccccccccc" />
    <path
       style="color:#000000;display:inline;overflow:visible;visibility:visible;opacity:1;fill:#735472;fill-opacity:1;fill-rule:nonzero;stroke:#000000;stroke-width:2.4000001;stroke-linecap:round;stroke-linejoin:round;stroke-miterlimit:4;stroke-dasharray:none;stroke-dashoffset:0;stroke-opacity:1;marker:none;enable-background:accumulate"
       d="m 281.97265,256.15998 c 0,0 172.77485,-2.0501 236.28638,-1 -39.69429,75.65049 -118.02944,466.27626 -118.02944,466.27626 L 135.77164,674.76719 Z"
       id="rect4727"
       inkscape:connector-curvature="0"
       sodipodi:nodetypes="ccccc" />
    <g
       transform="matrix(1,0,0.06426569,1,-152.62533,73.455844)"
       id="g4719"
       style="fill:#737872;fill-opacity:1">
      <path
         style="color:#000000;display:inline;overflow:visible;visibility:visible;opacity:1;fill:#737872;fill-opacity:1;fill-rule:nonzero;stroke:#000000;stroke-width:2.29999995;stroke-linecap:round;stroke-linejoin:round;stroke-miterlimit:4;stroke-dasharray:none;stroke-dashoffset:0;stroke-opacity:1;marker:none;enable-background:accumulate"
         d="m 517.81733,416.25977 c -26.37618,-0.51482 -44.51945,15.38036 -58.92769,51.34375 l -41.59109,86.95312 c -58.53768,2.92511 -125.93428,50.09132 -153.32949,107.30469 -28.39793,59.37061 -3.28961,107.5 56.081,107.5 59.37061,0 130.52107,-48.12939 158.919,-107.5 1.68082,-3.59263 3.17949,-7.18112 4.49049,-10.75195 19.16694,-58.20067 43.96549,-146.41853 57.28182,-195.74805 4.25914,-23.53911 1.19345,-39 -20.34566,-39 -0.86815,-0.0506 -1.72752,-0.085 -2.57838,-0.10156 z"
         id="path4721"
         inkscape:connector-curvature="0"
         sodipodi:nodetypes="scccsccccs" />
      <path
         sodipodi:nodetypes="scccsccccs"
         inkscape:connector-curvature="0"
         id="path4723"
         d="m 517.81733,416.25977 c -26.37618,-0.51482 -44.51945,15.38036 -58.92769,51.34375 l -41.59109,86.95312 c -58.53768,2.92511 -125.93428,50.09132 -153.32949,107.30469 -52.08601,37.09675 -24.50281,105.37868 56.081,107.5 59.35005,1.56235 130.52107,-48.12939 158.919,-107.5 1.68082,-3.59263 3.17949,-7.18112 4.49049,-10.75195 19.16694,-58.20067 43.96549,-146.41853 57.28182,-195.74805 4.25914,-23.53911 10.38584,-50.31371 -35.1949,-56.32412 -0.86815,-0.0506 13.12172,17.23912 12.27086,17.22256 z"
         style="color:#000000;display:inline;overflow:visible;visibility:visible;opacity:1;fill:#737872;fill-opacity:1;fill-rule:nonzero;stroke:#000000;stroke-width:2.29999995;stroke-linecap:round;stroke-linejoin:round;stroke-miterlimit:4;stroke-dasharray:none;stroke-dashoffset:0;stroke-opacity:1;marker:none;enable-background:accumulate" />
      <path
         sodipodi:nodetypes="scccsccccs"
         inkscape:connector-curvature="0"
         id="path4725"
         d="m 499.81733,398.25977 c -26.37618,-0.51482 -44.51945,15.38036 -58.92769,51.34375 l -41.59109,86.95312 c -58.53768,2.92511 -125.93428,50.09132 -153.32949,107.30469 -28.39793,59.37061 -3.28961,107.5 56.081,107.5 59.37061,0 130.52107,-48.12939 158.919,-107.5 1.68082,-3.59263 3.17949,-7.18112 4.49049,-10.75195 19.16694,-58.20067 43.96549,-146.41853 57.28182,-195.74805 4.25914,-23.53911 1.19345,-39 -20.34566,-39 -0.86815,-0.0506 -1.72752,-0.085 -2.57838,-0.10156 z"
         style="color:#000000;display:inline;overflow:visible;visibility:visible;opacity:1;fill:#737872;fill-opacity:1;fill-rule:nonzero;stroke:#000000;stroke-width:2.29999995;stroke-linecap:round;stroke-linejoin:round;stroke-miterlimit:4;stroke-dasharray:none;stroke-dashoffset:0;stroke-opacity:1;marker:none;enable-background:accumulate" />
    </g>
    <g
       id="g4810"
       style="fill:#5e625d;fill-opacity:0.9127451"
       transform="matrix(0.57453271,0,-0.22411897,0.51612673,133.32613,414.99051)">
      <path
         inkscape:connector-curvature="0"
         style="color:#000000;display:inline;overflow:visible;visibility:visible;opacity:1;fill:#5e625d;fill-opacity:0.9127451;fill-rule:nonzero;stroke:#000000;stroke-width:2.20755315;stroke-linecap:round;stroke-linejoin:round;stroke-miterlimit:4;stroke-dasharray:none;stroke-dashoffset:0;stroke-opacity:1;marker:none;enable-background:accumulate"
         d="m 164.03859,187.80449 115.91534,0 0,75.42737 -115.91534,0 z"
         id="path4812" />
      <path
         inkscape:connector-curvature="0"
         id="path4814"
         d="m 267.88338,174.68465 12.24914,14.37943 1.59771,75.62513 -117.16569,-2.13029 -13.31428,-12.78171 0.53257,-72.96227 z"
         style="fill:#5e625d;fill-opacity:0.9127451;fill-rule:evenodd;stroke:#000000;stroke-width:2.29999995;stroke-linecap:butt;stroke-linejoin:miter;stroke-miterlimit:4;stroke-dasharray:none;stroke-opacity:1" />
      <path
         inkscape:connector-curvature="0"
         id="path4816"
         d="m 152.02051,174.28793 115.91534,0 0,75.42738 -115.91534,0 z"
         style="color:#000000;display:inline;overflow:visible;visibility:visible;opacity:1;fill:#5e625d;fill-opacity:0.9127451;fill-rule:nonzero;stroke:#000000;stroke-width:2.20755315;stroke-linecap:round;stroke-linejoin:round;stroke-miterlimit:4;stroke-dasharray:none;stroke-dashoffset:0;stroke-opacity:1;marker:none;enable-background:accumulate" />
    </g>
    <g
       id="g4711"
       transform="matrix(1,0,0.06426569,1,-186.62533,43.455844)"
       style="fill:#9c9b99;fill-opacity:1">
      <path
         sodipodi:nodetypes="scccsccccs"
         inkscape:connector-curvature="0"
         id="path4713"
         d="m 517.81733,416.25977 c -26.37618,-0.51482 -44.51945,15.38036 -58.92769,51.34375 l -41.59109,86.95312 c -58.53768,2.92511 -125.93428,50.09132 -153.32949,107.30469 -28.39793,59.37061 -3.28961,107.5 56.081,107.5 59.37061,0 130.52107,-48.12939 158.919,-107.5 1.68082,-3.59263 3.17949,-7.18112 4.49049,-10.75195 19.16694,-58.20067 43.96549,-146.41853 57.28182,-195.74805 4.25914,-23.53911 1.19345,-39 -20.34566,-39 -0.86815,-0.0506 -1.72752,-0.085 -2.57838,-0.10156 z"
         style="color:#000000;display:inline;overflow:visible;visibility:visible;opacity:1;fill:#9c9b99;fill-opacity:1;fill-rule:nonzero;stroke:#000000;stroke-width:2.29999995;stroke-linecap:round;stroke-linejoin:round;stroke-miterlimit:4;stroke-dasharray:none;stroke-dashoffset:0;stroke-opacity:1;marker:none;enable-background:accumulate" />
      <path
         style="color:#000000;display:inline;overflow:visible;visibility:visible;opacity:1;fill:#9c9b99;fill-opacity:1;fill-rule:nonzero;stroke:#000000;stroke-width:2.29999995;stroke-linecap:round;stroke-linejoin:round;stroke-miterlimit:4;stroke-dasharray:none;stroke-dashoffset:0;stroke-opacity:1;marker:none;enable-background:accumulate"
         d="m 517.81733,416.25977 c -26.37618,-0.51482 -44.51945,15.38036 -58.92769,51.34375 l -41.59109,86.95312 c -58.53768,2.92511 -125.93428,50.09132 -153.32949,107.30469 -52.08601,37.09675 -24.50281,105.37868 56.081,107.5 59.35005,1.56235 130.52107,-48.12939 158.919,-107.5 1.68082,-3.59263 3.17949,-7.18112 4.49049,-10.75195 19.16694,-58.20067 43.96549,-146.41853 57.28182,-195.74805 4.25914,-23.53911 10.38584,-50.31371 -35.1949,-56.32412 -0.86815,-0.0506 13.12172,17.23912 12.27086,17.22256 z"
         id="path4715"
         inkscape:connector-curvature="0"
         sodipodi:nodetypes="scccsccccs" />
      <path
         style="color:#000000;display:inline;overflow:visible;visibility:visible;opacity:1;fill:#9c9b99;fill-opacity:1;fill-rule:nonzero;stroke:#000000;stroke-width:2.29999995;stroke-linecap:round;stroke-linejoin:round;stroke-miterlimit:4;stroke-dasharray:none;stroke-dashoffset:0;stroke-opacity:1;marker:none;enable-background:accumulate"
         d="m 499.81733,398.25977 c -26.37618,-0.51482 -44.51945,15.38036 -58.92769,51.34375 l -41.59109,86.95312 c -58.53768,2.92511 -125.93428,50.09132 -153.32949,107.30469 -28.39793,59.37061 -3.28961,107.5 56.081,107.5 59.37061,0 130.52107,-48.12939 158.919,-107.5 1.68082,-3.59263 3.17949,-7.18112 4.49049,-10.75195 19.16694,-58.20067 43.96549,-146.41853 57.28182,-195.74805 4.25914,-23.53911 1.19345,-39 -20.34566,-39 -0.86815,-0.0506 -1.72752,-0.085 -2.57838,-0.10156 z"
         id="path4717"
         inkscape:connector-curvature="0"
         sodipodi:nodetypes="scccsccccs" />
    </g>
    <g
       transform="matrix(1,0,-0.39008916,1,269.05331,146.38035)"
       style="fill:#5e625d;fill-opacity:0.9127451"
       id="g4786">
      <path
         id="path4788"
         d="m 164.03859,187.80449 115.91534,0 0,75.42737 -115.91534,0 z"
         style="color:#000000;display:inline;overflow:visible;visibility:visible;opacity:1;fill:#5e625d;fill-opacity:0.9127451;fill-rule:nonzero;stroke:#000000;stroke-width:2.20755315;stroke-linecap:round;stroke-linejoin:round;stroke-miterlimit:4;stroke-dasharray:none;stroke-dashoffset:0;stroke-opacity:1;marker:none;enable-background:accumulate"
         inkscape:connector-curvature="0" />
      <path
         style="fill:#5e625d;fill-opacity:0.9127451;fill-rule:evenodd;stroke:#000000;stroke-width:2.29999995;stroke-linecap:butt;stroke-linejoin:miter;stroke-miterlimit:4;stroke-dasharray:none;stroke-opacity:1"
         d="m 267.88338,174.68465 12.24914,14.37943 1.59771,75.62513 -117.16569,-2.13029 -13.31428,-12.78171 0.53257,-72.96227 z"
         id="path4790"
         inkscape:connector-curvature="0" />
      <path
         style="color:#000000;display:inline;overflow:visible;visibility:visible;opacity:1;fill:#5e625d;fill-opacity:0.9127451;fill-rule:nonzero;stroke:#000000;stroke-width:2.20755315;stroke-linecap:round;stroke-linejoin:round;stroke-miterlimit:4;stroke-dasharray:none;stroke-dashoffset:0;stroke-opacity:1;marker:none;enable-background:accumulate"
         d="m 152.02051,174.28793 115.91534,0 0,75.42738 -115.91534,0 z"
         id="path4792"
         inkscape:connector-curvature="0" />
    </g>
    <g
       transform="matrix(0.57453271,0,-0.22411897,0.51612673,122.98454,400.53897)"
       style="fill:#9b9a98;fill-opacity:1"
       id="g4818">
      <path
         id="path4820"
         d="m 164.03859,187.80449 115.91534,0 0,75.42737 -115.91534,0 z"
         style="color:#000000;display:inline;overflow:visible;visibility:visible;opacity:1;fill:#9b9a98;fill-opacity:1;fill-rule:nonzero;stroke:#000000;stroke-width:2.20755315;stroke-linecap:round;stroke-linejoin:round;stroke-miterlimit:4;stroke-dasharray:none;stroke-dashoffset:0;stroke-opacity:1;marker:none;enable-background:accumulate"
         inkscape:connector-curvature="0" />
      <path
         style="fill:#9b9a98;fill-opacity:1;fill-rule:evenodd;stroke:#000000;stroke-width:2.29999995;stroke-linecap:butt;stroke-linejoin:miter;stroke-miterlimit:4;stroke-dasharray:none;stroke-opacity:1"
         d="m 267.88338,174.68465 12.24914,14.37943 1.59771,75.62513 -117.16569,-2.13029 -13.31428,-12.78171 0.53257,-72.96227 z"
         id="path4822"
         inkscape:connector-curvature="0" />
      <path
         style="color:#000000;display:inline;overflow:visible;visibility:visible;opacity:1;fill:#9b9a98;fill-opacity:1;fill-rule:nonzero;stroke:#000000;stroke-width:2.20755315;stroke-linecap:round;stroke-linejoin:round;stroke-miterlimit:4;stroke-dasharray:none;stroke-dashoffset:0;stroke-opacity:1;marker:none;enable-background:accumulate"
         d="m 152.02051,174.28793 115.91534,0 0,75.42738 -115.91534,0 z"
         id="path4824"
         inkscape:connector-curvature="0" />
    </g>
    <g
       id="g4706"
       transform="matrix(1,0,0.10175402,1,-239.4063,0)">
      <path
         style="color:#000000;display:inline;overflow:visible;visibility:visible;opacity:1;fill:#b7babc;fill-opacity:1;fill-rule:nonzero;stroke:#000000;stroke-width:2.29999995;stroke-linecap:round;stroke-linejoin:round;stroke-miterlimit:4;stroke-dasharray:none;stroke-dashoffset:0;stroke-opacity:1;marker:none;enable-background:accumulate"
         d="m 517.81733,416.25977 c -26.37618,-0.51482 -44.51945,15.38036 -58.92769,51.34375 l -41.59109,86.95312 c -58.53768,2.92511 -125.93428,50.09132 -153.32949,107.30469 -28.39793,59.37061 -3.28961,107.5 56.081,107.5 59.37061,0 130.52107,-48.12939 158.919,-107.5 1.68082,-3.59263 3.17949,-7.18112 4.49049,-10.75195 19.16694,-58.20067 43.96549,-146.41853 57.28182,-195.74805 4.25914,-23.53911 1.19345,-39 -20.34566,-39 -0.86815,-0.0506 -1.72752,-0.085 -2.57838,-0.10156 z"
         id="path4698"
         inkscape:connector-curvature="0"
         sodipodi:nodetypes="scccsccccs" />
      <path
         sodipodi:nodetypes="scccsccccs"
         inkscape:connector-curvature="0"
         id="path4704"
         d="m 517.81733,416.25977 c -26.37618,-0.51482 -44.51945,15.38036 -58.92769,51.34375 l -41.59109,86.95312 c -58.53768,2.92511 -125.93428,50.09132 -153.32949,107.30469 -52.08601,37.09675 -24.50281,105.37868 56.081,107.5 59.35005,1.56235 130.52107,-48.12939 158.919,-107.5 1.68082,-3.59263 3.17949,-7.18112 4.49049,-10.75195 19.16694,-58.20067 43.96549,-146.41853 57.28182,-195.74805 4.25914,-23.53911 10.38584,-50.31371 -35.1949,-56.32412 -0.86815,-0.0506 13.12172,17.23912 12.27086,17.22256 z"
         style="color:#000000;display:inline;overflow:visible;visibility:visible;opacity:1;fill:#b7babc;fill-opacity:1;fill-rule:nonzero;stroke:#000000;stroke-width:2.29999995;stroke-linecap:round;stroke-linejoin:round;stroke-miterlimit:4;stroke-dasharray:none;stroke-dashoffset:0;stroke-opacity:1;marker:none;enable-background:accumulate" />
      <path
         sodipodi:nodetypes="scccsccccs"
         inkscape:connector-curvature="0"
         id="path4684"
         d="m 499.81733,398.25977 c -26.37618,-0.51482 -44.51945,15.38036 -58.92769,51.34375 l -41.59109,86.95312 c -58.53768,2.92511 -125.93428,50.09132 -153.32949,107.30469 -28.39793,59.37061 -3.28961,107.5 56.081,107.5 59.37061,0 130.52107,-48.12939 158.919,-107.5 1.68082,-3.59263 3.17949,-7.18112 4.49049,-10.75195 19.16694,-58.20067 43.96549,-146.41853 57.28182,-195.74805 4.25914,-23.53911 1.19345,-39 -20.34566,-39 -0.86815,-0.0506 -1.72752,-0.085 -2.57838,-0.10156 z"
         style="color:#000000;display:inline;overflow:visible;visibility:visible;opacity:1;fill:#b7babc;fill-opacity:1;fill-rule:nonzero;stroke:#000000;stroke-width:2.29999995;stroke-linecap:round;stroke-linejoin:round;stroke-miterlimit:4;stroke-dasharray:none;stroke-dashoffset:0;stroke-opacity:1;marker:none;enable-background:accumulate" />
    </g>
    <g
       id="g4765"
       style="fill:#5e625d;fill-opacity:0.9127451"
       transform="matrix(1,0,-0.39008916,1,301.05331,52.380352)">
      <path
         inkscape:connector-curvature="0"
         style="color:#000000;display:inline;overflow:visible;visibility:visible;opacity:1;fill:#5e625d;fill-opacity:0.9127451;fill-rule:nonzero;stroke:#000000;stroke-width:2.20755315;stroke-linecap:round;stroke-linejoin:round;stroke-miterlimit:4;stroke-dasharray:none;stroke-dashoffset:0;stroke-opacity:1;marker:none;enable-background:accumulate"
         d="m 164.03859,187.80449 115.91534,0 0,75.42737 -115.91534,0 z"
         id="path4761" />
      <path
         inkscape:connector-curvature="0"
         id="path4763"
         d="m 267.88338,174.68465 12.24914,14.37943 1.59771,75.62513 -117.16569,-2.13029 -13.31428,-12.78171 0.53257,-72.96227 z"
         style="fill:#5e625d;fill-opacity:0.9127451;fill-rule:evenodd;stroke:#000000;stroke-width:2.29999995;stroke-linecap:butt;stroke-linejoin:miter;stroke-miterlimit:4;stroke-dasharray:none;stroke-opacity:1" />
      <path
         inkscape:connector-curvature="0"
         id="rect4758"
         d="m 152.02051,174.28793 115.91534,0 0,75.42738 -115.91534,0 z"
         style="color:#000000;display:inline;overflow:visible;visibility:visible;opacity:1;fill:#5e625d;fill-opacity:0.9127451;fill-rule:nonzero;stroke:#000000;stroke-width:2.20755315;stroke-linecap:round;stroke-linejoin:round;stroke-miterlimit:4;stroke-dasharray:none;stroke-dashoffset:0;stroke-opacity:1;marker:none;enable-background:accumulate" />
    </g>
    <g
       id="g4794"
       style="fill:#9b9a98;fill-opacity:1"
       transform="matrix(1,0,-0.39008916,1,251.05331,118.38035)">
      <path
         inkscape:connector-curvature="0"
         style="color:#000000;display:inline;overflow:visible;visibility:visible;opacity:1;fill:#9b9a98;fill-opacity:1;fill-rule:nonzero;stroke:#000000;stroke-width:2.20755315;stroke-linecap:round;stroke-linejoin:round;stroke-miterlimit:4;stroke-dasharray:none;stroke-dashoffset:0;stroke-opacity:1;marker:none;enable-background:accumulate"
         d="m 164.03859,187.80449 115.91534,0 0,75.42737 -115.91534,0 z"
         id="path4796" />
      <path
         inkscape:connector-curvature="0"
         id="path4798"
         d="m 267.88338,174.68465 12.24914,14.37943 1.59771,75.62513 -117.16569,-2.13029 -13.31428,-12.78171 0.53257,-72.96227 z"
         style="fill:#9b9a98;fill-opacity:1;fill-rule:evenodd;stroke:#000000;stroke-width:2.29999995;stroke-linecap:butt;stroke-linejoin:miter;stroke-miterlimit:4;stroke-dasharray:none;stroke-opacity:1" />
      <path
         inkscape:connector-curvature="0"
         id="path4800"
         d="m 152.02051,174.28793 115.91534,0 0,75.42738 -115.91534,0 z"
         style="color:#000000;display:inline;overflow:visible;visibility:visible;opacity:1;fill:#9b9a98;fill-opacity:1;fill-rule:nonzero;stroke:#000000;stroke-width:2.20755315;stroke-linecap:round;stroke-linejoin:round;stroke-miterlimit:4;stroke-dasharray:none;stroke-dashoffset:0;stroke-opacity:1;marker:none;enable-background:accumulate" />
    </g>
    <g
       transform="matrix(1,0,-0.39008916,1,283.05331,24.380352)"
       style="fill:#9b9a98;fill-opacity:1"
       id="g4770">
      <path
         id="path4772"
         d="m 164.03859,187.80449 115.91534,0 0,75.42737 -115.91534,0 z"
         style="color:#000000;display:inline;overflow:visible;visibility:visible;opacity:1;fill:#9b9a98;fill-opacity:1;fill-rule:nonzero;stroke:#000000;stroke-width:2.20755315;stroke-linecap:round;stroke-linejoin:round;stroke-miterlimit:4;stroke-dasharray:none;stroke-dashoffset:0;stroke-opacity:1;marker:none;enable-background:accumulate"
         inkscape:connector-curvature="0" />
      <path
         style="fill:#9b9a98;fill-opacity:1;fill-rule:evenodd;stroke:#000000;stroke-width:2.29999995;stroke-linecap:butt;stroke-linejoin:miter;stroke-miterlimit:4;stroke-dasharray:none;stroke-opacity:1"
         d="m 267.88338,174.68465 12.24914,14.37943 1.59771,75.62513 -117.16569,-2.13029 -13.31428,-12.78171 0.53257,-72.96227 z"
         id="path4774"
         inkscape:connector-curvature="0" />
      <path
         style="color:#000000;display:inline;overflow:visible;visibility:visible;opacity:1;fill:#9b9a98;fill-opacity:1;fill-rule:nonzero;stroke:#000000;stroke-width:2.20755315;stroke-linecap:round;stroke-linejoin:round;stroke-miterlimit:4;stroke-dasharray:none;stroke-dashoffset:0;stroke-opacity:1;marker:none;enable-background:accumulate"
         d="m 152.02051,174.28793 115.91534,0 0,75.42738 -115.91534,0 z"
         id="path4776"
         inkscape:connector-curvature="0" />
    </g>
    <g
       transform="matrix(1,0,-0.39008916,1,227.05331,86.380352)"
       style="fill:#b7babc;fill-opacity:1"
       id="g4802">
      <path
         id="path4804"
         d="m 164.03859,187.80449 115.91534,0 0,75.42737 -115.91534,0 z"
         style="color:#000000;display:inline;overflow:visible;visibility:visible;opacity:1;fill:#b7babc;fill-opacity:1;fill-rule:nonzero;stroke:#000000;stroke-width:2.20755315;stroke-linecap:round;stroke-linejoin:round;stroke-miterlimit:4;stroke-dasharray:none;stroke-dashoffset:0;stroke-opacity:1;marker:none;enable-background:accumulate"
         inkscape:connector-curvature="0" />
      <path
         style="fill:#b7babc;fill-opacity:1;fill-rule:evenodd;stroke:#000000;stroke-width:2.29999995;stroke-linecap:butt;stroke-linejoin:miter;stroke-miterlimit:4;stroke-dasharray:none;stroke-opacity:1"
         d="m 267.88338,174.68465 12.24914,14.37943 1.59771,75.62513 -117.16569,-2.13029 -13.31428,-12.78171 0.53257,-72.96227 z"
         id="path4806"
         inkscape:connector-curvature="0" />
      <path
         style="color:#000000;display:inline;overflow:visible;visibility:visible;opacity:1;fill:#b7babc;fill-opacity:1;fill-rule:nonzero;stroke:#000000;stroke-width:2.20755315;stroke-linecap:round;stroke-linejoin:round;stroke-miterlimit:4;stroke-dasharray:none;stroke-dashoffset:0;stroke-opacity:1;marker:none;enable-background:accumulate"
         d="m 152.02051,174.28793 115.91534,0 0,75.42738 -115.91534,0 z"
         id="path4808"
         inkscape:connector-curvature="0" />
    </g>
    <g
       id="g4778"
       style="fill:#b7babc;fill-opacity:1"
       transform="matrix(1,0,-0.39008916,1,259.05331,-7.619648)">
      <path
         inkscape:connector-curvature="0"
         style="color:#000000;display:inline;overflow:visible;visibility:visible;opacity:1;fill:#b7babc;fill-opacity:1;fill-rule:nonzero;stroke:#000000;stroke-width:2.20755315;stroke-linecap:round;stroke-linejoin:round;stroke-miterlimit:4;stroke-dasharray:none;stroke-dashoffset:0;stroke-opacity:1;marker:none;enable-background:accumulate"
         d="m 164.03859,187.80449 115.91534,0 0,75.42737 -115.91534,0 z"
         id="path4780" />
      <path
         inkscape:connector-curvature="0"
         id="path4782"
         d="m 267.88338,174.68465 12.24914,14.37943 1.59771,75.62513 -117.16569,-2.13029 -13.31428,-12.78171 0.53257,-72.96227 z"
         style="fill:#b7babc;fill-opacity:1;fill-rule:evenodd;stroke:#000000;stroke-width:2.29999995;stroke-linecap:butt;stroke-linejoin:miter;stroke-miterlimit:4;stroke-dasharray:none;stroke-opacity:1" />
      <path
         inkscape:connector-curvature="0"
         id="path4784"
         d="m 152.02051,174.28793 115.91534,0 0,75.42738 -115.91534,0 z"
         style="color:#000000;display:inline;overflow:visible;visibility:visible;opacity:1;fill:#b7babc;fill-opacity:1;fill-rule:nonzero;stroke:#000000;stroke-width:2.20755315;stroke-linecap:round;stroke-linejoin:round;stroke-miterlimit:4;stroke-dasharray:none;stroke-dashoffset:0;stroke-opacity:1;marker:none;enable-background:accumulate" />
    </g>
    <g
       id="g4826"
       style="fill:#b7babc;fill-opacity:1"
       transform="matrix(0.57453271,0,-0.22411897,0.51612673,109.19576,384.02291)">
      <path
         inkscape:connector-curvature="0"
         style="color:#000000;display:inline;overflow:visible;visibility:visible;opacity:1;fill:#b7babc;fill-opacity:1;fill-rule:nonzero;stroke:#000000;stroke-width:2.20755315;stroke-linecap:round;stroke-linejoin:round;stroke-miterlimit:4;stroke-dasharray:none;stroke-dashoffset:0;stroke-opacity:1;marker:none;enable-background:accumulate"
         d="m 164.03859,187.80449 115.91534,0 0,75.42737 -115.91534,0 z"
         id="path4828" />
      <path
         inkscape:connector-curvature="0"
         id="path4830"
         d="m 267.88338,174.68465 12.24914,14.37943 1.59771,75.62513 -117.16569,-2.13029 -13.31428,-12.78171 0.53257,-72.96227 z"
         style="fill:#b7babc;fill-opacity:1;fill-rule:evenodd;stroke:#000000;stroke-width:2.29999995;stroke-linecap:butt;stroke-linejoin:miter;stroke-miterlimit:4;stroke-dasharray:none;stroke-opacity:1" />
      <path
         inkscape:connector-curvature="0"
         id="path4832"
         d="m 152.02051,174.28793 115.91534,0 0,75.42738 -115.91534,0 z"
         style="color:#000000;display:inline;overflow:visible;visibility:visible;opacity:1;fill:#b7babc;fill-opacity:1;fill-rule:nonzero;stroke:#000000;stroke-width:2.20755315;stroke-linecap:round;stroke-linejoin:round;stroke-miterlimit:4;stroke-dasharray:none;stroke-dashoffset:0;stroke-opacity:1;marker:none;enable-background:accumulate" />
    </g>
    <g
       id="g4858"
       transform="translate(-180,0)">
      <ellipse
         ry="38.744156"
         rx="37.351097"
         transform="matrix(0.99954163,0.03027411,-0.23983762,0.97081302,0,0)"
         cy="498.33527"
         cx="560.61841"
         id="path4834"
         style="color:#000000;display:inline;overflow:visible;visibility:visible;opacity:1;fill:#eaeaea;fill-opacity:1;fill-rule:nonzero;stroke:#000000;stroke-width:2.00291181;stroke-linecap:round;stroke-linejoin:round;stroke-miterlimit:4;stroke-dasharray:none;stroke-dashoffset:0;stroke-opacity:1;marker:none;enable-background:accumulate" />
      <ellipse
         ry="38.744156"
         rx="37.351097"
         transform="matrix(0.99954163,0.03027411,-0.23983762,0.97081302,0,0)"
         style="color:#000000;display:inline;overflow:visible;visibility:visible;opacity:1;fill:#eaeaea;fill-opacity:1;fill-rule:nonzero;stroke:#000000;stroke-width:2.00291181;stroke-linecap:round;stroke-linejoin:round;stroke-miterlimit:4;stroke-dasharray:none;stroke-dashoffset:0;stroke-opacity:1;marker:none;enable-background:accumulate"
         id="circle4836"
         cx="547.13983"
         cy="489.73428" />
    </g>
    <g
       id="g4862"
       transform="translate(-180,0)">
      <ellipse
         ry="27.935976"
         rx="26.931528"
         transform="matrix(0.99954163,0.0302741,-0.23983762,0.97081302,0,0)"
         style="color:#000000;display:inline;overflow:visible;visibility:visible;opacity:1;fill:#eaeaea;fill-opacity:1;fill-rule:nonzero;stroke:#000000;stroke-width:1.44417381;stroke-linecap:round;stroke-linejoin:round;stroke-miterlimit:4;stroke-dasharray:none;stroke-dashoffset:0;stroke-opacity:1;marker:none;enable-background:accumulate"
         id="circle4850"
         cx="561.97565"
         cy="408.44443" />
      <ellipse
         ry="27.935976"
         rx="26.931528"
         transform="matrix(0.99954163,0.0302741,-0.23983762,0.97081302,0,0)"
         cy="401.70691"
         cx="551.01208"
         id="circle4852"
         style="color:#000000;display:inline;overflow:visible;visibility:visible;opacity:1;fill:#eaeaea;fill-opacity:1;fill-rule:nonzero;stroke:#000000;stroke-width:1.44417381;stroke-linecap:round;stroke-linejoin:round;stroke-miterlimit:4;stroke-dasharray:none;stroke-dashoffset:0;stroke-opacity:1;marker:none;enable-background:accumulate" />
    </g>
  </g>
</svg>
